<?xml version="1.0" encoding="UTF-8" standalone="no"?>
<!DOCTYPE svg PUBLIC "-//W3C//DTD SVG 1.1//EN" "http://www.w3.org/Graphics/SVG/1.1/DTD/svg11.dtd">
<svg width="100%" height="100%" viewBox="0 0 96 96" version="1.1" xmlns="http://www.w3.org/2000/svg" xmlns:xlink="http://www.w3.org/1999/xlink" xml:space="preserve" style="fill-rule:evenodd;clip-rule:evenodd;stroke-linejoin:round;stroke-miterlimit:1.41421;">
    <g id="path6455" transform="matrix(1,0,0,1,268,-635.291)">
        <path d="M-268,700.156L-268,666.426C-268,639.183 -264.112,635.291 -236.897,635.291L-203.103,635.291C-175.888,635.291 -172,639.183 -172,666.426L-172,700.156C-172,727.399 -175.888,731.291 -203.103,731.291L-236.897,731.291C-264.112,731.291 -268,727.399 -268,700.156Z" style="fill:rgb(0,114,225);fill-rule:nonzero;"/>
    </g>
    <g id="path5" transform="matrix(1.31985,0,0,1.32315,5.92793,6.16519)">
        <path d="M32,5C17.112,5 5,17.112 5,32C5,46.888 17.112,59 32,59C46.888,59 59,46.888 59,32C59,17.112 46.888,5 32,5ZM51.294,16.12C50.055,17.027 47.565,18.514 43.488,19.613C41.007,13.666 37.276,9.453 34.883,7.172C41.467,7.932 47.282,11.254 51.294,16.12ZM56.975,31L53,31L53,26C53,23.243 50.757,21 48,21L45.904,21C49.182,19.913 51.309,18.616 52.507,17.726C55.156,21.521 56.78,26.079 56.975,31ZM52.507,46.274C51.309,45.384 49.182,44.087 45.904,43L48,43C50.757,43 53,40.757 53,38L53,33L56.975,33C56.78,37.921 55.156,42.479 52.507,46.274ZM7.025,33L11,33L11,38C11,40.757 13.243,43 16,43L18.096,43C14.818,44.087 12.691,45.384 11.493,46.274C8.844,42.479 7.22,37.921 7.025,33ZM11.493,17.726C12.691,18.616 14.818,19.913 18.096,21L16,21C13.243,21 11,23.243 11,26L11,31L7.025,31C7.22,26.079 8.844,21.521 11.493,17.726ZM16,41C14.346,41 13,39.654 13,38L13,26C13,24.346 14.346,23 16,23L48,23C49.654,23 51,24.346 51,26L51,38C51,39.654 49.654,41 48,41L16,41ZM33,20.976L33,8.162C35.145,10.133 38.982,14.219 41.509,20.087C39.135,20.582 36.302,20.916 33,20.976ZM31,8.165L31,20.976C27.698,20.916 24.865,20.582 22.492,20.086C25.015,14.233 28.854,10.141 31,8.165ZM31,43.024L31,55.838C28.855,53.867 25.018,49.781 22.491,43.913C24.865,43.418 27.698,43.084 31,43.024ZM33,55.835L33,43.024C36.302,43.084 39.135,43.418 41.508,43.913C38.985,49.767 35.146,53.859 33,55.835ZM29.117,7.172C26.724,9.453 22.993,13.666 20.512,19.613C16.435,18.514 13.944,17.027 12.706,16.12C16.718,11.254 22.533,7.932 29.117,7.172ZM12.706,47.88C13.945,46.973 16.435,45.486 20.512,44.387C22.993,50.334 26.724,54.547 29.117,56.828C22.533,56.068 16.718,52.746 12.706,47.88ZM34.883,56.828C37.276,54.547 41.007,50.334 43.488,44.387C47.565,45.486 50.056,46.973 51.294,47.88C47.282,52.746 41.467,56.068 34.883,56.828Z" style="fill:white;fill-rule:nonzero;"/>
    </g>
    <g id="path7" transform="matrix(1.31985,0,0,1.32315,5.92793,6.16519)">
        <path d="M32,1C14.907,1 1,14.907 1,32C1,49.093 14.907,63 32,63C49.093,63 63,49.093 63,32C63,14.907 49.093,1 32,1ZM32,61C16.009,61 3,47.991 3,32C3,16.009 16.009,3 32,3C47.991,3 61,16.009 61,32C61,47.991 47.991,61 32,61Z" style="fill:white;fill-rule:nonzero;"/>
    </g>
    <g id="path9" transform="matrix(1.31985,0,0,1.32315,5.92793,6.16519)">
        <path d="M18,25L15,25L15,39L18,39C21.86,39 25,35.86 25,32C25,28.14 21.86,25 18,25ZM18,37L17,37L17,27L18,27C20.757,27 23,29.243 23,32C23,34.757 20.757,37 18,37Z" style="fill:white;fill-rule:nonzero;"/>
    </g>
    <g id="polygon11" transform="matrix(1.31985,0,0,1.32315,5.92793,6.16519)">
        <path d="M35,35.764L29.618,25L27,25L27,39L29,39L29,28.236L34.382,39L37,39L37,25L35,25L35,35.764Z" style="fill:white;fill-rule:nonzero;"/>
    </g>
    <g id="path13" transform="matrix(1.31985,0,0,1.32315,5.92793,6.16519)">
        <path d="M45,31L43,31C41.897,31 41,30.103 41,29C41,27.897 41.897,27 43,27L45,27C46.103,27 47,27.897 47,29L49,29C49,26.794 47.206,25 45,25L43,25C40.794,25 39,26.794 39,29C39,31.206 40.794,33 43,33L45,33C46.103,33 47,33.897 47,35C47,36.103 46.103,37 45,37L43,37C41.897,37 41,36.103 41,35L39,35C39,37.206 40.794,39 43,39L45,39C47.206,39 49,37.206 49,35C49,32.794 47.206,31 45,31Z" style="fill:white;fill-rule:nonzero;"/>
    </g>
</svg>
